<mxfile host="app.diagrams.net" modified="2023-09-14T15:21:20.082Z" agent="Mozilla/5.0 (Windows NT 10.0; Win64; x64) AppleWebKit/537.36 (KHTML, like Gecko) Chrome/116.0.0.0 Safari/537.36" etag="OnQlNqKw3Jt_woJ5bkhH" version="21.7.5" type="device">
  <diagram name="Strona-1" id="AV7L95APYfh9ugGY0T1e">
    <mxGraphModel dx="1450" dy="942" grid="0" gridSize="10" guides="1" tooltips="1" connect="1" arrows="1" fold="1" page="0" pageScale="1" pageWidth="827" pageHeight="1169" math="0" shadow="0">
      <root>
        <mxCell id="0" />
        <mxCell id="1" parent="0" />
        <mxCell id="d2ck4s9HLgS_R3VjgFS2-5" value="" style="edgeStyle=none;curved=1;rounded=0;orthogonalLoop=1;jettySize=auto;html=1;fontSize=12;startSize=8;endSize=8;" parent="1" source="d2ck4s9HLgS_R3VjgFS2-1" target="d2ck4s9HLgS_R3VjgFS2-3" edge="1">
          <mxGeometry relative="1" as="geometry" />
        </mxCell>
        <mxCell id="d2ck4s9HLgS_R3VjgFS2-1" value="" style="ellipse;fillColor=strokeColor;html=1;fontSize=16;" parent="1" vertex="1">
          <mxGeometry x="-187" y="-238" width="30" height="30" as="geometry" />
        </mxCell>
        <mxCell id="d2ck4s9HLgS_R3VjgFS2-30" value="" style="edgeStyle=none;curved=1;rounded=0;orthogonalLoop=1;jettySize=auto;html=1;fontSize=12;startSize=8;endSize=8;" parent="1" source="d2ck4s9HLgS_R3VjgFS2-3" target="d2ck4s9HLgS_R3VjgFS2-29" edge="1">
          <mxGeometry relative="1" as="geometry" />
        </mxCell>
        <mxCell id="d2ck4s9HLgS_R3VjgFS2-3" value="Zalogowanie jako Admin w oknie AdminLogin" style="rounded=1;whiteSpace=wrap;html=1;fontSize=16;" parent="1" vertex="1">
          <mxGeometry x="-30" y="-266.25" width="167" height="86.5" as="geometry" />
        </mxCell>
        <mxCell id="d2ck4s9HLgS_R3VjgFS2-8" value="" style="edgeStyle=none;curved=1;rounded=0;orthogonalLoop=1;jettySize=auto;html=1;fontSize=12;startSize=8;endSize=8;" parent="1" source="d2ck4s9HLgS_R3VjgFS2-4" target="d2ck4s9HLgS_R3VjgFS2-7" edge="1">
          <mxGeometry relative="1" as="geometry" />
        </mxCell>
        <mxCell id="d2ck4s9HLgS_R3VjgFS2-4" value="Wyświetlenie okna Books&amp;nbsp;&amp;nbsp;" style="rounded=1;whiteSpace=wrap;html=1;fontSize=16;verticalAlign=middle;" parent="1" vertex="1">
          <mxGeometry x="-29.5" y="-17" width="167" height="86.5" as="geometry" />
        </mxCell>
        <mxCell id="d2ck4s9HLgS_R3VjgFS2-10" value="" style="edgeStyle=none;curved=1;rounded=0;orthogonalLoop=1;jettySize=auto;html=1;fontSize=12;startSize=8;endSize=8;" parent="1" source="d2ck4s9HLgS_R3VjgFS2-7" target="d2ck4s9HLgS_R3VjgFS2-9" edge="1">
          <mxGeometry relative="1" as="geometry" />
        </mxCell>
        <mxCell id="d2ck4s9HLgS_R3VjgFS2-15" value="" style="edgeStyle=none;curved=1;rounded=0;orthogonalLoop=1;jettySize=auto;html=1;fontSize=12;startSize=8;endSize=8;" parent="1" source="d2ck4s9HLgS_R3VjgFS2-7" target="d2ck4s9HLgS_R3VjgFS2-12" edge="1">
          <mxGeometry relative="1" as="geometry" />
        </mxCell>
        <mxCell id="d2ck4s9HLgS_R3VjgFS2-28" value="" style="edgeStyle=none;curved=1;rounded=0;orthogonalLoop=1;jettySize=auto;html=1;fontSize=12;startSize=8;endSize=8;" parent="1" source="d2ck4s9HLgS_R3VjgFS2-7" target="d2ck4s9HLgS_R3VjgFS2-13" edge="1">
          <mxGeometry relative="1" as="geometry" />
        </mxCell>
        <mxCell id="d2ck4s9HLgS_R3VjgFS2-7" value="" style="rhombus;fontSize=16;" parent="1" vertex="1">
          <mxGeometry x="19" y="149" width="70" height="70" as="geometry" />
        </mxCell>
        <mxCell id="d2ck4s9HLgS_R3VjgFS2-23" value="" style="edgeStyle=none;curved=1;rounded=0;orthogonalLoop=1;jettySize=auto;html=1;fontSize=12;startSize=8;endSize=8;" parent="1" source="d2ck4s9HLgS_R3VjgFS2-9" target="d2ck4s9HLgS_R3VjgFS2-11" edge="1">
          <mxGeometry relative="1" as="geometry" />
        </mxCell>
        <mxCell id="d2ck4s9HLgS_R3VjgFS2-9" value="Zamknięcie okna" style="rounded=1;whiteSpace=wrap;html=1;fontSize=16;" parent="1" vertex="1">
          <mxGeometry x="-255" y="140.75" width="167" height="86.5" as="geometry" />
        </mxCell>
        <mxCell id="d2ck4s9HLgS_R3VjgFS2-11" value="" style="ellipse;html=1;shape=endState;fillColor=strokeColor;fontSize=16;" parent="1" vertex="1">
          <mxGeometry x="-186.5" y="327.25" width="30" height="30" as="geometry" />
        </mxCell>
        <mxCell id="d2ck4s9HLgS_R3VjgFS2-17" value="" style="edgeStyle=none;curved=1;rounded=0;orthogonalLoop=1;jettySize=auto;html=1;fontSize=12;startSize=8;endSize=8;" parent="1" source="d2ck4s9HLgS_R3VjgFS2-12" target="d2ck4s9HLgS_R3VjgFS2-16" edge="1">
          <mxGeometry relative="1" as="geometry" />
        </mxCell>
        <mxCell id="d2ck4s9HLgS_R3VjgFS2-12" value="Wyszukiwanie wybranych danych z bazy" style="rounded=1;whiteSpace=wrap;html=1;fontSize=16;" parent="1" vertex="1">
          <mxGeometry x="-29.5" y="299" width="167" height="86.5" as="geometry" />
        </mxCell>
        <mxCell id="d2ck4s9HLgS_R3VjgFS2-21" style="edgeStyle=orthogonalEdgeStyle;rounded=0;orthogonalLoop=1;jettySize=auto;html=1;exitX=0.5;exitY=0;exitDx=0;exitDy=0;entryX=1;entryY=0.75;entryDx=0;entryDy=0;fontSize=12;startSize=8;endSize=8;" parent="1" source="d2ck4s9HLgS_R3VjgFS2-13" target="d2ck4s9HLgS_R3VjgFS2-4" edge="1">
          <mxGeometry relative="1" as="geometry" />
        </mxCell>
        <mxCell id="d2ck4s9HLgS_R3VjgFS2-13" value="Edytowanie wybranych danych z bazy" style="rounded=1;whiteSpace=wrap;html=1;fontSize=16;" parent="1" vertex="1">
          <mxGeometry x="196.5" y="140.75" width="167" height="86.5" as="geometry" />
        </mxCell>
        <mxCell id="d2ck4s9HLgS_R3VjgFS2-19" value="" style="edgeStyle=none;curved=1;rounded=0;orthogonalLoop=1;jettySize=auto;html=1;fontSize=12;startSize=8;endSize=8;" parent="1" source="d2ck4s9HLgS_R3VjgFS2-16" target="d2ck4s9HLgS_R3VjgFS2-18" edge="1">
          <mxGeometry relative="1" as="geometry" />
        </mxCell>
        <mxCell id="d2ck4s9HLgS_R3VjgFS2-16" value="Usuwanie wybranych rekordów bazy danych" style="rounded=1;whiteSpace=wrap;html=1;fontSize=16;" parent="1" vertex="1">
          <mxGeometry x="-29.5" y="473" width="167" height="86.5" as="geometry" />
        </mxCell>
        <mxCell id="d2ck4s9HLgS_R3VjgFS2-20" style="edgeStyle=orthogonalEdgeStyle;rounded=0;orthogonalLoop=1;jettySize=auto;html=1;fontSize=12;startSize=8;endSize=8;entryX=1;entryY=0.25;entryDx=0;entryDy=0;" parent="1" source="d2ck4s9HLgS_R3VjgFS2-18" target="d2ck4s9HLgS_R3VjgFS2-4" edge="1">
          <mxGeometry relative="1" as="geometry">
            <mxPoint x="284.97058823529414" y="682" as="targetPoint" />
            <Array as="points">
              <mxPoint x="419.5" y="682" />
              <mxPoint x="419.5" y="5" />
            </Array>
          </mxGeometry>
        </mxCell>
        <mxCell id="d2ck4s9HLgS_R3VjgFS2-26" value="" style="edgeStyle=none;curved=1;rounded=0;orthogonalLoop=1;jettySize=auto;html=1;fontSize=12;startSize=8;endSize=8;" parent="1" source="d2ck4s9HLgS_R3VjgFS2-18" target="d2ck4s9HLgS_R3VjgFS2-22" edge="1">
          <mxGeometry relative="1" as="geometry" />
        </mxCell>
        <mxCell id="d2ck4s9HLgS_R3VjgFS2-18" value="" style="rhombus;fontSize=16;" parent="1" vertex="1">
          <mxGeometry x="19" y="647" width="70" height="70" as="geometry" />
        </mxCell>
        <mxCell id="d2ck4s9HLgS_R3VjgFS2-27" value="" style="edgeStyle=none;curved=1;rounded=0;orthogonalLoop=1;jettySize=auto;html=1;fontSize=12;startSize=8;endSize=8;" parent="1" source="d2ck4s9HLgS_R3VjgFS2-22" target="d2ck4s9HLgS_R3VjgFS2-25" edge="1">
          <mxGeometry relative="1" as="geometry" />
        </mxCell>
        <mxCell id="d2ck4s9HLgS_R3VjgFS2-22" value="Zamknięcie okna" style="rounded=1;whiteSpace=wrap;html=1;fontSize=16;" parent="1" vertex="1">
          <mxGeometry x="-255" y="638.75" width="167" height="86.5" as="geometry" />
        </mxCell>
        <mxCell id="d2ck4s9HLgS_R3VjgFS2-25" value="" style="ellipse;html=1;shape=endState;fillColor=strokeColor;fontSize=16;" parent="1" vertex="1">
          <mxGeometry x="-186.5" y="804" width="30" height="30" as="geometry" />
        </mxCell>
        <mxCell id="d2ck4s9HLgS_R3VjgFS2-31" value="" style="edgeStyle=none;curved=1;rounded=0;orthogonalLoop=1;jettySize=auto;html=1;fontSize=12;startSize=8;endSize=8;" parent="1" source="d2ck4s9HLgS_R3VjgFS2-29" target="d2ck4s9HLgS_R3VjgFS2-4" edge="1">
          <mxGeometry relative="1" as="geometry" />
        </mxCell>
        <mxCell id="d2ck4s9HLgS_R3VjgFS2-33" value="" style="edgeStyle=none;curved=1;rounded=0;orthogonalLoop=1;jettySize=auto;html=1;fontSize=12;startSize=8;endSize=8;" parent="1" source="d2ck4s9HLgS_R3VjgFS2-29" target="d2ck4s9HLgS_R3VjgFS2-32" edge="1">
          <mxGeometry relative="1" as="geometry" />
        </mxCell>
        <mxCell id="d2ck4s9HLgS_R3VjgFS2-29" value="" style="rhombus;fontSize=16;" parent="1" vertex="1">
          <mxGeometry x="18.5" y="-133" width="70" height="70" as="geometry" />
        </mxCell>
        <mxCell id="d2ck4s9HLgS_R3VjgFS2-36" value="" style="edgeStyle=none;curved=1;rounded=0;orthogonalLoop=1;jettySize=auto;html=1;fontSize=12;startSize=8;endSize=8;" parent="1" source="d2ck4s9HLgS_R3VjgFS2-32" target="d2ck4s9HLgS_R3VjgFS2-35" edge="1">
          <mxGeometry relative="1" as="geometry" />
        </mxCell>
        <mxCell id="d2ck4s9HLgS_R3VjgFS2-32" value="Powrót do okna logowania" style="rounded=1;whiteSpace=wrap;html=1;fontSize=16;" parent="1" vertex="1">
          <mxGeometry x="196.5" y="-141.25" width="167" height="86.5" as="geometry" />
        </mxCell>
        <mxCell id="d2ck4s9HLgS_R3VjgFS2-35" value="" style="ellipse;html=1;shape=endState;fillColor=strokeColor;fontSize=16;" parent="1" vertex="1">
          <mxGeometry x="399" y="-113" width="30" height="30" as="geometry" />
        </mxCell>
      </root>
    </mxGraphModel>
  </diagram>
</mxfile>
